<svg width="42" height="42" viewBox="0 0 42 42" fill="none" xmlns="http://www.w3.org/2000/svg">
<path d="M36.2097 5.37988H6.75056C6.0421 5.37988 5.46973 5.95225 5.46973 6.66071V36.1198C5.46973 36.8283 6.0421 37.4007 6.75056 37.4007H36.2097C36.9181 37.4007 37.4905 36.8283 37.4905 36.1198V6.66071C37.4905 5.95225 36.9181 5.37988 36.2097 5.37988ZM32.5113 14.7259H29.9536C27.9483 14.7259 27.5601 15.6786 27.5601 17.0795V20.1655H32.3472L31.7228 24.9966H27.5601V37.4007H22.5688V25.0006H18.3941V20.1655H22.5688V16.6032C22.5688 12.4685 25.0945 10.215 28.7849 10.215C30.554 10.215 32.071 10.3471 32.5153 10.4071V14.7259H32.5113Z" fill="#FA4A0C"/>
</svg>
