<svg width="41" height="42" viewBox="0 0 41 42" fill="none" xmlns="http://www.w3.org/2000/svg">
<path d="M37.1445 11.0757C35.9197 11.604 34.5868 11.9843 33.2139 12.1324C34.6393 11.2856 35.7067 9.94774 36.2159 8.36992C34.8783 9.16559 33.4131 9.72353 31.8851 10.019C31.2464 9.33625 30.474 8.79235 29.616 8.42118C28.758 8.05001 27.8327 7.85952 26.8978 7.86159C23.1154 7.86159 20.0734 10.9276 20.0734 14.69C20.0734 15.2184 20.1374 15.7467 20.2415 16.255C14.5778 15.9588 9.52656 13.2531 6.16838 9.1104C5.55648 10.1555 5.23583 11.3456 5.23978 12.5566C5.23978 14.9262 6.44456 17.0155 8.28175 18.2443C7.19906 18.2017 6.14173 17.9041 5.19575 17.3758V17.4598C5.19575 20.778 7.54127 23.5278 10.6673 24.1602C10.0804 24.3126 9.47655 24.3906 8.87013 24.3923C8.42584 24.3923 8.00557 24.3483 7.5813 24.2883C8.44586 26.994 10.9635 28.9593 13.9614 29.0233C11.6159 30.8605 8.67801 31.9412 5.48794 31.9412C4.91557 31.9412 4.38722 31.9212 3.83887 31.8572C6.86483 33.7984 10.4552 34.9191 14.3217 34.9191C26.8738 34.9191 33.7423 24.5204 33.7423 15.4945C33.7423 15.1984 33.7423 14.9022 33.7223 14.606C35.0511 13.6333 36.2159 12.4286 37.1445 11.0757Z" fill="#FA4A0C"/>
</svg>
